# xmcd
#
# Track frame offsets:
#	150
#	12674
#	25721
#	38393
#	50990
#	62650
#	72472
#	85744
#	98724
#	113430
#	123445
#	135061
#	146534
#	158298
#	171163
#	183410
#	196140
#	210128
#	224514
#	239430
#	252371
#	264781
#
# Disc length: 3714 seconds
#
# Revision: 1
# Processed by: cddbd v1.5.2PL0 Copyright (c) Steve Scherf et al.
# Submitted via: audiograbber 1.83.01
#
DISCID=200e8016
DTITLE=Best of Blues - CD 03
DYEAR=1900
DGENRE=
TTITLE0=Midnight Hour - Clarence Gatemouth Brown
TTITLE1=Ain't That Dandy - Clarence Gatemouth Brown
TTITLE2=Dirty Work At The Crossroads - Clarence Gatemouth Brown
TTITLE3=Hurry Back Good News - Clarence Gatemouth Brown
TTITLE4=Okie Dokie Stomp - Clarence Gatemouth Brown
TTITLE5=Just Before Dawn - Clarence Gatemouth Brown
TTITLE6=Depression Blues - Clarence Gatemouth Brown
TTITLE7=Trombone Man Blues - Blue Lu Barker
TTITLE8=Here's A Little Girl - Blue Lu Barker
TTITLE9=A Little Bird Told Me - Blue Lu Barker
TTITLE10=What Did You Do To Me - Blue Lu Barker
TTITLE11=Leave My Man Alone - Blue Lu Barker
TTITLE12=Now You're Down In The Alley - Blue Lu Barker
TTITLE13=Bow Legged Daddy - Blue Lu Barker
TTITLE14=Mississippi River Blues - Big Bill Broonzy
TTITLE15=Long Tall Mama - Big Bill Broonzy
TTITLE16=Worrying You Off My Mind (Part 1) - Big Bill Broonzy
TTITLE17=Rising Sun Shine On - Big Bill Broonzy
TTITLE18=Good Jelly - Big Bill Broonzy
TTITLE19=How You Want It Done - Big Bill Broonzy
TTITLE20=Hattie Blues - Big Bill Broonzy
TTITLE21=Kokomo Blues - Scrapper Blackwell
EXTD=
EXTT0=
EXTT1=
EXTT2=
EXTT3=
EXTT4=
EXTT5=
EXTT6=
EXTT7=
EXTT8=
EXTT9=
EXTT10=
EXTT11=
EXTT12=
EXTT13=
EXTT14=
EXTT15=
EXTT16=
EXTT17=
EXTT18=
EXTT19=
EXTT20=
EXTT21=
PLAYORDER=
